<svg id="Capa_1" data-name="Capa 1" xmlns="http://www.w3.org/2000/svg" viewBox="0 0 198.36 207.85"><defs><style>.cls-1{fill:#fff;}</style></defs><path class="cls-1" d="M78.8,151.54H43V37.73H5.15V9.12H117.07V37.73H78.8ZM44.52,150H77.3V36.23h38.27V10.62H6.65V36.23H44.52Z"/><path class="cls-1" d="M143.23,198.72c-15.91,0-29.2-3.94-39.52-11.71s-16.1-18.85-17-32.84l-.06-.8h37.76l.06.68c.51,5.1,2.35,9.17,5.45,12.08a16.81,16.81,0,0,0,12,4.38c4.16,0,7.47-1.13,9.84-3.38a11.88,11.88,0,0,0,3.56-9,11.67,11.67,0,0,0-3.28-8.45,26.72,26.72,0,0,0-8.43-5.71c-3.44-1.52-8.25-3.36-14.3-5.46a178.18,178.18,0,0,1-21.92-8.91,41.18,41.18,0,0,1-14.82-13c-4.12-5.75-6.22-13.3-6.22-22.46A38,38,0,0,1,92.79,72a41.48,41.48,0,0,1,17.95-14.32,65.44,65.44,0,0,1,26.11-4.94c15.78,0,28.51,3.81,37.84,11.33s14.72,18,15.93,31.21l.07.81H152.35l-.09-.64a18.29,18.29,0,0,0-4.88-10.64c-2.56-2.56-6.11-3.86-10.53-3.86a13.59,13.59,0,0,0-9.17,3c-2.28,2-3.43,4.93-3.43,8.8a11.23,11.23,0,0,0,3.08,8,24.52,24.52,0,0,0,8,5.51c3.28,1.44,8.09,3.32,14.3,5.56a159.64,159.64,0,0,1,22.22,9.11,43.3,43.3,0,0,1,15,13.28c4.19,5.82,6.32,13.48,6.32,22.76a39.76,39.76,0,0,1-5.79,20.92,40.93,40.93,0,0,1-17,15.23C162.93,196.82,153.8,198.72,143.23,198.72Zm-55-43.85c1.07,13.15,6.58,23.56,16.39,30.94,10,7.57,23,11.41,38.61,11.41,10.33,0,19.24-1.85,26.47-5.5a39.53,39.53,0,0,0,16.44-14.67h0a38.23,38.23,0,0,0,5.57-20.14c0-9-2-16.32-6-21.88a41.77,41.77,0,0,0-14.48-12.83,158.57,158.57,0,0,0-22-9c-6.26-2.27-11.1-4.15-14.41-5.61a25.8,25.8,0,0,1-8.52-5.85,12.67,12.67,0,0,1-3.49-9c0-4.32,1.33-7.67,4-9.93a15,15,0,0,1,10.15-3.37c4.83,0,8.73,1.45,11.59,4.3a19.46,19.46,0,0,1,5.2,10.84H189c-1.31-12.36-6.45-22.23-15.29-29.36-9.05-7.29-21.47-11-36.9-11A63.88,63.88,0,0,0,111.34,59,40.08,40.08,0,0,0,94,72.83a36.55,36.55,0,0,0-6.25,21.3c0,8.84,2,16.1,5.94,21.59A39.65,39.65,0,0,0,108,128.24a174.48,174.48,0,0,0,21.73,8.83c6.09,2.12,10.94,4,14.41,5.5a28.37,28.37,0,0,1,8.91,6.05,13.15,13.15,0,0,1,3.7,9.49,13.37,13.37,0,0,1-4,10.11c-2.66,2.52-6.32,3.79-10.88,3.79a18.28,18.28,0,0,1-13-4.78A19.65,19.65,0,0,1,123,154.87Z"/></svg>